<svg width="64" height="50" viewBox="0 0 64 50" fill="none" xmlns="http://www.w3.org/2000/svg">
<path d="M14.8335 0L24.0433 10.044L17.5415 22.9418L31.251 20.4631L37.4908 35.6541L64 0.601024L14.8335 0ZM13.1476 21.7438L15.6995 19.6321L12.4056 20.6829L12.0616 20.1989L13.4276 18.8657L11.6456 19.5898C4.83186 22.2581 9.07188e-06 28.9077 9.07188e-06 36.7028C-0.0024645 39.1935 0.500926 41.6582 1.47915 43.9451C2.45737 46.232 3.8897 48.2927 5.68783 50C4.13293 47.2508 3.31735 44.1395 3.3219 40.9745C3.3219 33.2762 8.15575 26.4148 14.8315 23.7163L15.6775 21.6591L13.6776 22.5404L13.1156 21.774L13.1476 21.7438ZM24.7832 16.4495L29.0451 8.86612L54.1063 2.95268L24.7832 16.4495Z" fill="#F65151"/>
</svg>
